<svg xmlns="http://www.w3.org/2000/svg" width="16" height="16" style="overflow:visible"><path fill="none" stroke="currentColor" stroke-width=".7" d="M5 8a1 1 0 1 1-2 0 1 1 0 0 1 2 0m4 0a1 1 0 1 1-2 0 1 1 0 0 1 2 0m3 1a1 1 0 1 0 0-2 1 1 0 0 0 0 2"/><path fill="none" stroke="currentColor" stroke-width=".8" d="M2.2 15.8h0c1.8-.4 3-.8 3.5-1.1A9 9 0 0 0 8 15c4.4 0 8-3.1 8-7s-3.6-7-8-7-8 3.1-8 7c0 1.8.7 3.4 2 4.6a10.4 10.4 0 0 1-.6 2.3h0a11 11 0 0 1-.2.7c0 .2 0 .4.3.3a22 22 0 0 0 .7-.1m.8-3.1a1 "/></svg>