<svg xmlns="http://www.w3.org/2000/svg" viewBox="-10 0 408 381"><path d="M109.7 238a35.3 35.3 0 1 1-.1 70.5 35.3 35.3 0 0 1 .1-70.5m0-23.5a58.7 58.7 0 1 0 0 117.4 58.7 58.7 0 0 0 0-117.4zM380 322.9A329 329 0 0 0 60.1 3c-5-.1-9.1 3.8-9.1 8.8v5.9c0 4.8 3.8 8.7 8.5 8.8a305.6 305.6 0 0 1 297 297c.1 4.8 4 8.5 8.8 8.5h5.9c5 0 8.9-4.1 8.8-9.1zm-105.9 0A223 223 0 0 0 60.2 109c-5-.2-9.1 3.8-9.1 8.8v5.9c0 4.7 3.8 8.6 8.5 8.8a199.6 199.6 0 0 1 191.1 191.1 8.9 8.9 0 0 0 8.8 8.5h5.9a9 9 0 0 0 8.7-9.2z"/></svg>
