<svg xmlns="http://www.w3.org/2000/svg" xml:space="preserve" style="enable-background:new 0 0 500 500" viewBox="0 0 500 500"><path d="M174.8 83.9c-3.5 15-5.3 30.3-5.3 45.9 0 110.9 90.2 201 201.1 201 15.6 0 30.9-1.8 45.9-5.3-13 22.8-30.9 42.4-52.8 57.7C334 404 299 415 262.6 415c-97.7 0-177.2-79.5-177.2-177.2 0-36.4 11-71.4 31.7-101.2 15.3-21.8 35-39.7 57.7-52.7m19.5-35.5c-1.6 0-3.2.3-4.7.9C114 78.6 60.4 152 60.4 237.8 60.4 349.4 151 440 262.6 440c85.8 0 159.2-53.6 188.5-129.1 1.9-4.8.7-10.3-2.9-14-2.5-2.5-5.8-3.8-9.2-3.8-1.6 0-3.2.3-4.7.9-19.7 7.7-41.2 11.8-63.6 11.8-97.2 0-176.1-78.9-176.1-176 0-22.4 4.2-43.9 11.9-63.6 1.9-4.8.7-10.3-2.9-13.9-2.6-2.6-5.9-3.9-9.3-3.9z"/></svg>
