<svg xmlns="http://www.w3.org/2000/svg" viewBox="0 0 496 512"><path d="M314.9 194.4v101.4h-28.3v120.5h-77.1V295.9h-28.3V194.4a15.8 15.8 0 0 1 15.9-16H299c4.1 0 7.8 1.6 11.1 4.7 3.1 3.2 4.8 6.9 4.8 11.3zm-101.5-63.7c0-23.3 11.5-35 34.5-35s34.5 11.7 34.5 35c0 23-11.5 34.5-34.5 34.5s-34.5-11.5-34.5-34.5zM247.6 8C389.4 8 496 118.1 496 256c0 147.1-118.5 248-248.4 248A248.6 248.6 0 0 1 0 256C0 123.1 104.7 8 247.6 8zm.8 44.7C130.2 52.7 44.7 150.6 44.7 256a204.7 204.7 0 0 0 203.7 202.8c103.2 0 202.8-81.1 202.8-202.8A201.6 201.6 0 0 0 248.4 52.7z"/></svg>
