<svg xmlns="http://www.w3.org/2000/svg" viewBox="0 0 496 512"><path d="M247.6 8C389.4 8 496 118.1 496 256c0 147.1-118.5 248-248.4 248A248.6 248.6 0 0 1 0 256C0 123.1 104.7 8 247.6 8zm.8 44.7C130.2 52.7 44.7 150.6 44.7 256a204.7 204.7 0 0 0 203.7 202.8c103.2 0 202.8-81.1 202.8-202.8A201.6 201.6 0 0 0 248.4 52.7zM137.7 221c13-83.9 80.5-95.7 108.9-95.7 99.8 0 127.5 82.5 127.5 134.2 0 63.6-41 132.9-128.9 132.9-38.9 0-99.1-20-109.4-97h62.5c1.5 30.1 19.6 45.2 54.5 45.2 23.3 0 58-18.2 58-82.8 0-82.5-49.1-80.6-56.7-80.6-33.1 0-51.7 14.6-55.8 43.8h18.2l-49.2 49.2-49-49.2h19.4z"/></svg>
