<svg xmlns="http://www.w3.org/2000/svg" version="1.0" viewBox="0 0 64 64"><path d="M32 14c-11 0-13 10-13 18s2 18 13 18 13-10 13-18-2-18-13-18zm0 7h1l1 3-7 12-1-4c0-4 1-11 6-11zm5 5 1 6c0 4-1 11-6 11a5 5 0 0 1-2 0c-1 0-2-1-1-3l8-14z"/><path d="M32 0C23 0 16 3 9 9a32 32 0 0 0-9 23 31 31 0 0 0 9 23l11 7a32 32 0 0 0 24 0 33 33 0 0 0 18-18l2-12a32 32 0 0 0-9-23c-6-6-14-9-23-9zm0 6c7 0 13 2 19 7a26 26 0 0 1 7 19c0 7-2 13-7 18a27 27 0 0 1-19 8l-10-2A27 27 0 0 1 8 42a26 26 0 0 1 6-29c5-5 11-7 18-7z"/></svg>
