<svg xmlns="http://www.w3.org/2000/svg" viewBox="-4 0 64 60">
<g class="flat">
<path d="M57,6.9a1.3,1.3,0,0,0,.3-1.8,1.2,1.2,0,0,0-1.7-.3L52.5,7a1.3,1.3,0,0,0-.3,1.8,1.2,1.2,0,0,0,1,.5l.7-.2Zm-8.2-.8h.4a1.3,1.3,0,0,0,1.2-.8l1.3-3.6A1.1,1.1,0,0,0,51,.2a1.4,1.4,0,0,0-1.6.7L48.1,4.5A1.2,1.2,0,0,0,48.8,6.1Zm9.8,5.5H54.8a1.2,1.2,0,0,0-1.3,1.2,1.3,1.3,0,0,0,1.3,1.2h3.8a1.2,1.2,0,0,0,1.2-1.3A1.2,1.2,0,0,0,58.6,11.6Z"/>
<path d="M37.2,6.7a2.4,2.4,0,0,1,2-.8,2.5,2.5,0,0,1,2.1,1,2.9,2.9,0,0,1-.2,3.8L39.8,12l-.6.4a5.2,5.2,0,0,0-1-2.3,5.1,5.1,0,0,0-2.6-1.8Zm-8.7-3a2.8,2.8,0,0,1,2-.9,2.9,2.9,0,0,1,2.2,1.1,2.9,2.9,0,0,1-.3,3.8L17.7,22.3V20.6a5.1,5.1,0,0,0-1.9-4ZM.6,37a2.1,2.1,0,0,1,.3-1.7l2.6-3s.8-6.5,2.6-19.4a2.7,2.7,0,0,1,2.7-2.7,2.7,2.7,0,0,1,2.8,2.7v2.6a5.3,5.3,0,0,0-4.6,5L4.6,38.9l-.7.9a9.2,9.2,0,0,1-2-1A5.6,5.6,0,0,1,.6,37Z"/>
<path d="M49.6,36.9l-7.2,7.2c-6.1,6.2-12.5,11.2-18.2,12.4l-.4.2-3.3,2.5a1,1,0,0,1-1,.4c-.7,0-6.5-3.8-9.1-6.3S3.8,44,4.4,43L7,40s.9-6.4,2.6-19.3a2.9,2.9,0,0,1,2.8-2.8,2.8,2.8,0,0,1,2.7,2.8l.2,4.6a1.2,1.2,0,0,0,1.3,1.2.9.9,0,0,0,.8-.4L32.1,11.4a2.7,2.7,0,0,1,1.9-.8,2.5,2.5,0,0,1,2.2,1.1,2.8,2.8,0,0,1-.3,3.7l-10,10.2a1.2,1.2,0,0,0,0,1.9,1.5,1.5,0,0,0,.9.4,1.8,1.8,0,0,0,1-.4L40.7,14.4a3.2,3.2,0,0,1,2-.8,2.9,2.9,0,0,1,2.2,1.1,2.8,2.8,0,0,1-.3,3.7l-12.9,13a1.5,1.5,0,0,0,0,2,1.7,1.7,0,0,0,1,.3,1.6,1.6,0,0,0,.9-.3L43.7,23.2a2.8,2.8,0,0,1,2-.9,2.9,2.9,0,0,1,2.2,1.1,2.9,2.9,0,0,1-.3,3.8l-10,10.1a1.2,1.2,0,0,0,0,1.9,1.1,1.1,0,0,0,.9.4,1.6,1.6,0,0,0,.9-.3L45.6,33a2.9,2.9,0,0,1,2.1-.9,2.7,2.7,0,0,1,1.7.6A2.8,2.8,0,0,1,49.6,36.9Z"/>
</g>
<g class="outline">
<path d="M57.1,6.6a1.2,1.2,0,0,0,.3-1.7,1.1,1.1,0,0,0-1.6-.2L52.7,6.8a1.2,1.2,0,0,0-.2,1.7,1.2,1.2,0,0,0,.9.5l.7-.2Zm-7.9-.7h.4a1.2,1.2,0,0,0,1.1-.8L52,1.8A1.2,1.2,0,1,0,49.8.9L48.5,4.4A1.1,1.1,0,0,0,49.2,5.9Zm9.4,5.3H54.9a1.1,1.1,0,0,0-1.1,1.2A1.2,1.2,0,0,0,55,13.7h3.7a1.1,1.1,0,0,0,1.1-1.2A1.2,1.2,0,0,0,58.6,11.2ZM51.2,29.7a5.1,5.1,0,0,0-2.1-1,.3.3,0,0,0,.1-.2l.5-.5a5.1,5.1,0,0,0-2.5-8.7c.1-.2.2-.3.2-.5a5.1,5.1,0,0,0-.1-6.1,5.4,5.4,0,0,0-3-1.9,5,5,0,0,0-.5-5.6,4.9,4.9,0,0,0-3.9-1.9,5,5,0,0,0-3.4,1.2,6.2,6.2,0,0,0-1-2.2,5.1,5.1,0,0,0-4-2,5.1,5.1,0,0,0-3.6,1.5L15.7,14.1V12.5a5.1,5.1,0,0,0-10.1-.2L3.1,30.2l-2,2.3c-1.3,1.4-.3,3.9,0,4.5a5.9,5.9,0,0,0,1.4,1.9l1.7,1.4c-.9,1.4.5,7,5.3,12.1s10.7,7.5,11.6,7.5a3.4,3.4,0,0,0,2.2-.7l2.9-2.3a26.8,26.8,0,0,0,9.2-4.5,69,69,0,0,0,9.3-8l7-7a5.2,5.2,0,0,0,1.4-3.9A4.7,4.7,0,0,0,51.2,29.7ZM38,6.5a2.4,2.4,0,0,1,1.9-.8,2.8,2.8,0,0,1,2.1,1,2.7,2.7,0,0,1-.3,3.6l-1.2,1.3-.6.4a4.4,4.4,0,0,0-1-2.2A4.9,4.9,0,0,0,36.4,8Zm-8.4-3a2.8,2.8,0,0,1,4,.3,2.8,2.8,0,0,1-.3,3.6L19.1,21.6V20a5.4,5.4,0,0,0-1.8-4ZM2.6,35.8a2,2,0,0,1,.3-1.7l2.4-2.9S6.2,25,7.9,12.5a2.7,2.7,0,1,1,5.3,0v2.4a5.2,5.2,0,0,0-4.4,4.9L6.5,37.6l-.7.9a9.2,9.2,0,0,1-2-1A3.8,3.8,0,0,1,2.6,35.8ZM50,35.7l-7,7c-5.9,5.9-12.1,10.7-17.6,11.9l-.4.2-3.2,2.5a1.3,1.3,0,0,1-.9.3c-.7,0-6.3-3.6-8.9-6.1s-6.4-9-5.7-9.9l2.5-2.9s.8-6.2,2.5-18.7a2.7,2.7,0,1,1,5.3,0l.2,4.4A1.2,1.2,0,0,0,18,25.6a1.6,1.6,0,0,0,.9-.3L33,11a2.7,2.7,0,0,1,1.9-.8A2.6,2.6,0,0,1,37,11.3a2.6,2.6,0,0,1-.3,3.6L27,24.7a1.4,1.4,0,0,0,0,1.9,1.6,1.6,0,0,0,.9.3,1.7,1.7,0,0,0,1-.3L41.4,13.9a2.8,2.8,0,0,1,4,.3,2.7,2.7,0,0,1-.3,3.6L32.7,30.4a1.1,1.1,0,0,0,0,1.8,1,1,0,0,0,.9.4,1.2,1.2,0,0,0,.9-.4l9.8-9.8a2.7,2.7,0,0,1,1.9-.8,2.6,2.6,0,0,1,2.1,1,2.9,2.9,0,0,1-.3,3.7L38.3,36a1.4,1.4,0,0,0,0,1.9,1.2,1.2,0,0,0,.9.4,1.6,1.6,0,0,0,.9-.3l6-6.1a3,3,0,0,1,2-.8,2.4,2.4,0,0,1,1.6.5A2.8,2.8,0,0,1,50,35.7Z"/>
</g>
</svg>
